    <svg fill="none" viewBox="0 0 189 48" xmlns="http://www.w3.org/2000/svg">
        <path fill="#fff" d="m63.2666 35.6415h3.718l3.1022-10.9409 3.126 10.9409h3.718l4.6415-16.577h-3.4338l-3.1733 12.2906-3.4812-12.2906h-2.7944l-3.4575 12.2906-3.1733-12.2906h-3.4338z"/>
        <path fill="#fff" d="m87.5508 35.973c3.4812 0 6.2756-2.7233 6.2756-6.2519 0-3.5285-2.7944-6.2519-6.2756-6.2519s-6.2519 2.7234-6.2519 6.2519c0 3.5286 2.7707 6.2519 6.2519 6.2519zm0-2.9838c-1.7998 0-3.197-1.3499-3.197-3.2681s1.3972-3.268 3.197-3.268c1.8235 0 3.2207 1.3498 3.2207 3.268s-1.3972 3.2681-3.2207 3.2681z"/>
        <path fill="#fff" d="m99.0304 25.8374v-2.0367h-3.0549v11.8408h3.0549v-5.6599c0-2.4865 2.0126-3.197 3.5996-3.0075v-3.4102c-1.492 0-2.9839.6631-3.5996 2.2735z"/>
        <path fill="#fff" d="m115.334 35.6415-4.902-5.9914 4.76-5.8494h-3.647l-4.073 5.21v-9.9462h-3.055v16.577h3.055v-5.3757l4.31 5.3757z"/>
        <path fill="#fff" clip-rule="evenodd" d="m46.3417 20.4503-7.596-4.3857v20.3714h8.8804v1.9735h-43.41603v-1.9735h3.94693v-12.5505l-3.67837.9196-.47863-1.9145 20.8091-5.2023h3.0813c-.3401.8066-.5661 1.6571-.6713 2.5247l-.4758 3.9222 5.0952-2.9418v15.2426h4.9337v-20.3702l-7.5941 4.3847c.2187-1.8034 1.0965-3.5088 2.5313-4.7358h-4.0644c1.35-1.7975 3.4998-2.9602 5.9213-2.9602.2139 0 .4269.0092.636.0271l-5.5176-3.18575c2.0679-.88157 4.5106-.81376 6.6074.39688 1.0253.59177 1.8559 1.39197 2.4678 2.31597.6119-.924 1.4415-1.7242 2.4668-2.31597 2.0968-1.21064 4.5405-1.27845 6.6084-.39688l-5.5186 3.18575c.2101-.0179.4231-.0271.638-.0271 2.4205 0 4.5703 1.1627 5.9203 2.9602h-4.0654c1.4358 1.227 2.3136 2.9324 2.5323 4.7356zm-18.4501 15.9857v-9.8672h-5.9204v9.8672zm-10.854-7.8937c0 1.0899-.8836 1.9734-1.9735 1.9734s-1.9734-.8835-1.9734-1.9734.8835-1.9735 1.9734-1.9735 1.9735.8836 1.9735 1.9735z" fill-rule="evenodd"/>
        <path fill="#fff" d="m122.496 35.9733c2.321 0 4.334-1.2315 5.352-3.0786l-2.652-1.5156c-.474.9709-1.492 1.5629-2.724 1.5629-1.823 0-3.173-1.3498-3.173-3.2206 0-1.8946 1.35-3.2444 3.173-3.2444 1.208 0 2.226.6157 2.7 1.5867l2.629-1.5393c-.971-1.8235-2.984-3.055-5.305-3.055-3.6 0-6.252 2.7234-6.252 6.252 0 3.5285 2.652 6.2519 6.252 6.2519z"/>
        <path fill="#fff" d="m138.278 23.801v1.3972c-.853-1.0657-2.132-1.7288-3.86-1.7288-3.15 0-5.755 2.7234-5.755 6.252 0 3.5285 2.605 6.2519 5.755 6.2519 1.728 0 3.007-.6631 3.86-1.7288v1.3972h3.055v-11.8407zm-3.292 9.2594c-1.871 0-3.268-1.3498-3.268-3.339 0-1.9893 1.397-3.3391 3.268-3.3391 1.895 0 3.292 1.3498 3.292 3.3391 0 1.9892-1.397 3.339-3.292 3.339z"/>
        <path fill="#fff" d="m150.876 26.7375v-2.9365h-2.676v-3.3154l-3.055.9236v2.3918h-2.06v2.9365h2.06v4.9257c0 3.197 1.444 4.4522 5.731 3.9785v-2.7707c-1.753.0947-2.676.071-2.676-1.2078v-4.9257z"/>
        <path fill="#fff" d="m154.545 22.3801c1.042 0 1.895-.8525 1.895-1.8708s-.853-1.8946-1.895-1.8946c-1.018 0-1.871.8763-1.871 1.8946s.853 1.8708 1.871 1.8708zm-1.515 13.2616h3.055v-11.8407h-3.055z"/>
        <path fill="#fff" d="m164.517 35.9733c3.481 0 6.275-2.7234 6.275-6.2519 0-3.5286-2.794-6.252-6.275-6.252s-6.252 2.7234-6.252 6.252c0 3.5285 2.771 6.2519 6.252 6.2519zm0-2.9839c-1.8 0-3.197-1.3498-3.197-3.268s1.397-3.2681 3.197-3.2681c1.823 0 3.22 1.3499 3.22 3.2681s-1.397 3.268-3.22 3.268z"/>
        <path fill="#fff" d="m179.525 23.4694c-1.587 0-2.818.5921-3.529 1.6578v-1.3262h-3.055v11.8407h3.055v-6.394c0-2.0603 1.113-2.9365 2.605-2.9365 1.374 0 2.345.8289 2.345 2.4392v6.8913h3.055v-7.2702c0-3.1496-1.966-4.9021-4.476-4.9021z"/>
    </svg>